Coordinates
version=1
nRows=24
nColumns=24
inDegrees=yes

Units are S.I. units (second, meters, Newtons, ...)
If the header above contains a line with 'inDegrees', this indicates whether rotational values are in degrees (yes) or radians (no).

endheader
time	pelvis_tilt	pelvis_list	pelvis_rotation	pelvis_tx	pelvis_ty	pelvis_tz	hip_flexion_r	hip_adduction_r	hip_rotation_r	knee_angle_r	ankle_angle_r	subtalar_angle_r	mtp_angle_r	hip_flexion_l	hip_adduction_l	hip_rotation_l	knee_angle_l	ankle_angle_l	subtalar_angle_l	mtp_angle_l	lumbar_extension	lumbar_bending	lumbar_rotation
      0.40000000	     11.57001386	      3.52964234	      1.26875221	      0.61173097	      1.00532378	     -0.02704883	     15.72427613	    -11.91874737	     -7.61643055	    -58.68649502	     -1.87954948	      6.16394575	      0.00000000	    -14.49890272	      5.53870715	     -5.74329715	     -5.17572486	      0.62974465	     13.28239275	      0.00000000	    -27.70005285	     -3.60058176	    -10.30988235
      0.41700000	     11.62180878	      3.60456858	      1.33010323	      0.60924709	      1.00483930	     -0.02842905	     16.27059931	    -11.91654620	     -7.95778256	    -54.20097545	     -1.69904594	      5.80701463	      0.00000000	    -16.34257843	      5.69008159	     -5.66514516	     -3.84626559	      0.59132016	     13.43188411	      0.00000000	    -27.98506194	     -3.48395211	    -10.55204693
      0.43300000	     11.58942457	      3.79687117	      1.12834457	      0.60666285	      1.00373250	     -0.02852571	     16.69011397	    -11.85801886	     -8.12638426	    -49.15652465	     -1.58811208	      5.13033284	      0.00000000	    -17.97421811	      5.94333786	     -6.13194682	     -2.72001031	      0.66923216	     14.10694119	      0.00000000	    -28.12960315	     -3.65818230	    -10.40538408
      0.45000000	     11.80292327	      4.12179838	      1.11752817	      0.60448318	      1.00245743	     -0.02907053	     16.40628763	    -11.96030526	     -8.60856611	    -43.53809761	     -1.61385924	      4.30366892	      0.00000000	    -19.85221866	      6.29463916	     -6.14422378	     -1.72785673	      0.82445052	     14.46502585	      0.00000000	    -28.47894222	     -3.84482893	    -10.45777861
      0.46700000	     11.68500612	      4.47754093	      0.95634616	      0.60168490	      1.00036512	     -0.02913362	     16.29870983	    -11.98452667	     -9.00788969	    -37.45299724	     -1.79484779	      3.89295954	      0.00000000	    -21.13024959	      6.70443420	     -6.52092140	     -1.13328058	      1.15277756	     15.06013749	      0.00000000	    -28.49953074	     -4.12170590	    -10.48558228
      0.48300000	     11.30797757	      4.74265490	      1.18291752	      0.59913049	      0.99787140	     -0.02910291	     16.00490988	    -11.93206718	     -9.82629007	    -30.90216931	     -1.98466296	      3.95009222	      0.00000000	    -22.23791439	      6.85108618	     -6.20457356	     -0.39622286	      1.39490442	     15.31748012	      0.00000000	    -28.31785873	     -4.22987060	    -10.60005799
      0.50000000	     10.78008256	      5.03198418	      0.94050709	      0.59700287	      0.99462448	     -0.02773922	     15.84777297	    -11.64232857	     -9.99921456	    -24.25906486	     -2.21273626	      4.46137323	      0.00000000	    -23.01371860	      7.11390333	     -6.97513754	     -0.03841883	      1.87160002	     16.44836054	      0.00000000	    -27.87017093	     -4.60860242	    -10.19417249
      0.51700000	     10.35481131	      5.43147503	      0.76261731	      0.59477662	      0.99117233	     -0.02671182	     15.47859368	    -11.49972679	     -9.92328417	    -17.74346818	     -2.23435915	      5.82623002	      0.00000000	    -23.87694204	      7.47397491	     -7.33064009	      0.27764256	      2.29120680	     17.20129821	      0.00000000	    -27.59172548	     -4.99278686	    -10.10998641
      0.53300000	      9.86387644	      5.79098253	      0.86237946	      0.59291598	      0.98734152	     -0.02560614	     14.96615127	    -11.36481444	     -9.65925383	    -11.47885530	     -2.30247554	      7.20962993	      0.00000000	    -24.55406030	      7.63037582	     -7.34455105	      0.32058265	      2.97017481	     17.92301557	      0.00000000	    -27.18461892	     -5.24764534	    -10.03896668
      0.55000000	      9.63095031	      6.02452090	      0.42950510	      0.59196487	      0.98336585	     -0.02367404	     14.27624605	    -11.02181554	     -8.60885526	     -5.90352178	     -2.29783576	      8.29378521	      0.00000000	    -25.56424209	      7.82005944	     -8.42018488	      0.43586523	      3.56349996	     19.51424142	      0.00000000	    -26.86049053	     -5.55347874	     -9.60287884
      0.56700000	      9.61700292	      6.12237976	      0.32831267	      0.59121196	      0.97978845	     -0.02227436	     13.53065202	    -10.70723251	     -7.11864676	     -1.75877624	     -2.29252221	      8.09515344	      0.00000000	    -26.72732984	      7.71301147	     -8.91824548	      0.36561302	      4.12233101	     20.66566557	      0.00000000	    -26.84230462	     -5.52443414	     -9.31101338
      0.58300000	      9.60376936	      6.35934495	      0.84078541	      0.58995192	      0.97666587	     -0.02129630	     13.27459148	    -10.83671926	     -7.17000027	      0.19194296	     -2.16089013	      8.83699101	      0.00000000	    -27.46651911	      7.36741878	     -8.83068185	     -0.45470024	      4.76109292	     21.63179752	      0.00000000	    -27.04210539	     -5.35791720	     -9.60429281
      0.60000000	      9.54707405	      6.20844455	      0.89127129	      0.59036926	      0.97353198	     -0.01889818	     13.66726076	    -10.40188856	     -6.39623801	     -0.04852485	     -1.86559434	      8.13719018	      0.00000000	    -28.25983194	      6.73618725	     -9.32839039	     -1.16360046	      5.10260439	     22.66791166	      0.00000000	    -26.89381035	     -5.06793071	     -9.16544199
      0.61700000	      9.66970508	      5.81749681	      1.23253889	      0.59123031	      0.97109792	     -0.01654237	     14.24895099	     -9.78511213	     -5.94565906	     -2.11815774	     -2.03352050	      6.76460746	      0.00000000	    -29.00854091	      5.65225309	     -9.71767499	     -2.30566417	      5.38122424	     23.60597767	      0.00000000	    -26.95749733	     -4.38817135	     -9.22361211
      0.63300000	      9.92037107	      5.75788804	      1.87450722	      0.59236708	      0.96940407	     -0.01456736	     14.84517118	     -9.59685768	     -5.80330358	     -5.30690190	     -2.41723170	      5.24387478	      0.00000000	    -29.72421575	      4.73542205	     -9.28495024	     -3.71891068	      5.27830708	     23.90368933	      0.00000000	    -27.18523132	     -3.86966231	     -9.63143905
      0.65000000	      9.76556048	      5.75176501	      2.39867615	      0.59378380	      0.96745388	     -0.01208069	     16.01170049	     -9.42683826	     -5.77239804	     -9.05661211	     -3.27563160	      3.62537242	      0.00000000	    -29.73569410	      3.91726109	     -9.05743946	     -5.63468885	      5.23181600	     24.72413209	      0.00000000	    -26.92379685	     -3.50236249	    -10.01661766
      0.66700000	      9.65824997	      5.73406073	      2.87848950	      0.59559756	      0.96658117	     -0.00987882	     16.81570419	     -9.31677256	     -5.74924933	    -12.38427675	     -4.60765966	      2.46007019	      0.00000000	    -29.58475510	      3.22187164	     -8.56987787	     -7.88139536	      4.74663739	     24.97791283	      0.00000000	    -26.68400859	     -3.02798438	    -10.22330777
      0.68300000	      9.34909018	      5.97025582	      2.93473542	      0.59656113	      0.96562410	     -0.00692561	     18.34606056	     -9.42477065	     -5.29738552	    -16.55236009	     -5.23684845	      1.67613968	      0.00000000	    -28.72983463	      2.99042667	     -8.06187345	    -10.89307145	      4.03195770	     24.86990346	      0.00000000	    -26.29512224	     -3.01328065	    -10.05022416
      0.70000000	      9.28199406	      5.51133193	      3.40062768	      0.59956085	      0.96615234	     -0.00413295	     18.90127120	     -8.86570060	     -5.18514816	    -19.95377623	     -5.56170296	      0.83006854	      0.00000000	    -27.78893990	      1.76479055	     -7.61648919	    -14.50442363	      2.79392424	     24.99290267	      0.00000000	    -26.07424936	     -2.18129631	    -10.07753712
      0.71700000	      9.56903820	      4.83282560	      3.93235181	      0.60275472	      0.96765375	     -0.00129555	     18.28075541	     -8.10436023	     -5.37962772	    -22.13372672	     -5.42903231	      0.56943909	      0.00000000	    -26.75516783	      0.19633021	     -7.13251366	    -18.73435930	      1.01875101	     24.96927271	      0.00000000	    -26.07197382	     -1.00818364	    -10.12343940
      0.73300000	      9.35011451	      4.52981169	      4.24380831	      0.60485877	      0.96836033	      0.00216645	     18.36205143	     -7.75252877	     -5.66092710	    -24.37049508	     -5.07302589	      0.75722534	      0.00000000	    -24.14955428	     -0.87810727	     -6.53047138	    -24.54794382	     -1.05741876	     24.17425186	      0.00000000	    -25.66030059	     -0.48375321	     -9.89712792
      0.75000000	      8.83809132	      3.88322403	      4.44504811	      0.60695650	      0.96883117	      0.00560957	     18.28736924	     -7.11323267	     -6.37213391	    -25.81494582	     -4.25481113	      1.50907385	      0.00000000	    -20.73600568	     -2.20438929	     -6.28635978	    -30.91906439	     -3.63508693	     22.85226712	      0.00000000	    -24.84827927	      0.34585872	     -9.97711955
      0.76700000	      8.06815315	      3.06743746	      4.64422018	      0.60807781	      0.96931876	      0.00895676	     18.30945758	     -6.18041237	     -6.85687684	    -26.83161235	     -3.11921837	      1.62666255	      0.00000000	    -16.27553110	     -3.77069683	     -6.26689528	    -38.08904573	     -6.94606570	     21.10887242	      0.00000000	    -23.91783750	      1.28012158	     -9.34860566
      0.78300000	      7.40208106	      1.90668717	      4.71675395	      0.60809221	      0.96989443	      0.01230028	     17.90918906	     -4.81066380	     -7.41087834	    -27.04953064	     -2.15335244	      1.99945414	      0.00000000	    -11.82052345	     -5.46268495	     -6.17477468	    -44.85637085	    -10.17431101	     18.17012076	      0.00000000	    -23.09613922	      2.53746826	     -8.63368854
